<mxfile host="app.diagrams.net" agent="Mozilla/5.0 (X11; Linux x86_64) AppleWebKit/537.36 (KHTML, like Gecko) Chrome/130.0.0.0 Safari/537.36" version="24.8.3">
  <diagram id="C5RBs43oDa-KdzZeNtuy" name="Page-1">
    <mxGraphModel dx="994" dy="639" grid="1" gridSize="10" guides="1" tooltips="1" connect="1" arrows="1" fold="1" page="1" pageScale="1" pageWidth="827" pageHeight="1169" math="0" shadow="0">
      <root>
        <mxCell id="WIyWlLk6GJQsqaUBKTNV-0" />
        <mxCell id="WIyWlLk6GJQsqaUBKTNV-1" parent="WIyWlLk6GJQsqaUBKTNV-0" />
        <mxCell id="SY2ZpiSkwmGouHmG82qD-0" value="Multi-head&lt;div&gt;Attention&lt;/div&gt;" style="rounded=0;whiteSpace=wrap;html=1;" vertex="1" parent="WIyWlLk6GJQsqaUBKTNV-1">
          <mxGeometry x="346" y="520" width="110" height="40" as="geometry" />
        </mxCell>
        <mxCell id="SY2ZpiSkwmGouHmG82qD-1" value="Norm" style="rounded=0;whiteSpace=wrap;html=1;" vertex="1" parent="WIyWlLk6GJQsqaUBKTNV-1">
          <mxGeometry x="346" y="450" width="110" height="40" as="geometry" />
        </mxCell>
        <mxCell id="SY2ZpiSkwmGouHmG82qD-2" value="" style="endArrow=classic;html=1;rounded=0;entryX=0.5;entryY=1;entryDx=0;entryDy=0;exitX=0.5;exitY=0;exitDx=0;exitDy=0;" edge="1" parent="WIyWlLk6GJQsqaUBKTNV-1" source="SY2ZpiSkwmGouHmG82qD-0" target="SY2ZpiSkwmGouHmG82qD-1">
          <mxGeometry width="50" height="50" relative="1" as="geometry">
            <mxPoint x="386" y="560" as="sourcePoint" />
            <mxPoint x="436" y="510" as="targetPoint" />
          </mxGeometry>
        </mxCell>
        <mxCell id="SY2ZpiSkwmGouHmG82qD-3" value="" style="endArrow=classic;html=1;rounded=0;entryX=0.5;entryY=1;entryDx=0;entryDy=0;" edge="1" parent="WIyWlLk6GJQsqaUBKTNV-1" target="SY2ZpiSkwmGouHmG82qD-0">
          <mxGeometry width="50" height="50" relative="1" as="geometry">
            <mxPoint x="401" y="600" as="sourcePoint" />
            <mxPoint x="396" y="570" as="targetPoint" />
          </mxGeometry>
        </mxCell>
        <mxCell id="SY2ZpiSkwmGouHmG82qD-6" value="&lt;font style=&quot;font-size: 18px;&quot;&gt;+&lt;/font&gt;" style="ellipse;whiteSpace=wrap;html=1;aspect=fixed;" vertex="1" parent="WIyWlLk6GJQsqaUBKTNV-1">
          <mxGeometry x="386" y="400" width="30" height="30" as="geometry" />
        </mxCell>
        <mxCell id="SY2ZpiSkwmGouHmG82qD-7" value="" style="endArrow=classic;html=1;rounded=0;exitX=0.5;exitY=0;exitDx=0;exitDy=0;entryX=0.5;entryY=1;entryDx=0;entryDy=0;" edge="1" parent="WIyWlLk6GJQsqaUBKTNV-1" source="SY2ZpiSkwmGouHmG82qD-1" target="SY2ZpiSkwmGouHmG82qD-6">
          <mxGeometry width="50" height="50" relative="1" as="geometry">
            <mxPoint x="356" y="470" as="sourcePoint" />
            <mxPoint x="406" y="420" as="targetPoint" />
          </mxGeometry>
        </mxCell>
        <mxCell id="SY2ZpiSkwmGouHmG82qD-10" value="" style="endArrow=classic;html=1;rounded=0;entryX=1;entryY=0.5;entryDx=0;entryDy=0;" edge="1" parent="WIyWlLk6GJQsqaUBKTNV-1" target="SY2ZpiSkwmGouHmG82qD-6">
          <mxGeometry width="50" height="50" relative="1" as="geometry">
            <mxPoint x="406" y="580" as="sourcePoint" />
            <mxPoint x="506" y="570" as="targetPoint" />
            <Array as="points">
              <mxPoint x="496" y="580" />
              <mxPoint x="496" y="415" />
            </Array>
          </mxGeometry>
        </mxCell>
        <mxCell id="SY2ZpiSkwmGouHmG82qD-11" value="MLP" style="rounded=0;whiteSpace=wrap;html=1;" vertex="1" parent="WIyWlLk6GJQsqaUBKTNV-1">
          <mxGeometry x="346" y="340" width="110" height="40" as="geometry" />
        </mxCell>
        <mxCell id="SY2ZpiSkwmGouHmG82qD-13" value="" style="endArrow=classic;html=1;rounded=0;entryX=0.5;entryY=1;entryDx=0;entryDy=0;" edge="1" parent="WIyWlLk6GJQsqaUBKTNV-1" target="SY2ZpiSkwmGouHmG82qD-11">
          <mxGeometry width="50" height="50" relative="1" as="geometry">
            <mxPoint x="401" y="400" as="sourcePoint" />
            <mxPoint x="396" y="370" as="targetPoint" />
          </mxGeometry>
        </mxCell>
        <mxCell id="SY2ZpiSkwmGouHmG82qD-14" value="Norm" style="rounded=0;whiteSpace=wrap;html=1;" vertex="1" parent="WIyWlLk6GJQsqaUBKTNV-1">
          <mxGeometry x="346" y="280" width="110" height="40" as="geometry" />
        </mxCell>
        <mxCell id="SY2ZpiSkwmGouHmG82qD-16" value="" style="endArrow=classic;html=1;rounded=0;entryX=0.5;entryY=1;entryDx=0;entryDy=0;exitX=0.5;exitY=0;exitDx=0;exitDy=0;" edge="1" parent="WIyWlLk6GJQsqaUBKTNV-1" source="SY2ZpiSkwmGouHmG82qD-11" target="SY2ZpiSkwmGouHmG82qD-14">
          <mxGeometry width="50" height="50" relative="1" as="geometry">
            <mxPoint x="266" y="340" as="sourcePoint" />
            <mxPoint x="316" y="290" as="targetPoint" />
          </mxGeometry>
        </mxCell>
        <mxCell id="SY2ZpiSkwmGouHmG82qD-17" value="" style="endArrow=none;dashed=1;html=1;dashPattern=1 3;strokeWidth=2;rounded=0;" edge="1" parent="WIyWlLk6GJQsqaUBKTNV-1">
          <mxGeometry width="50" height="50" relative="1" as="geometry">
            <mxPoint x="316" y="590" as="sourcePoint" />
            <mxPoint x="316" y="220" as="targetPoint" />
          </mxGeometry>
        </mxCell>
        <mxCell id="SY2ZpiSkwmGouHmG82qD-18" value="" style="endArrow=none;dashed=1;html=1;dashPattern=1 3;strokeWidth=2;rounded=0;" edge="1" parent="WIyWlLk6GJQsqaUBKTNV-1">
          <mxGeometry width="50" height="50" relative="1" as="geometry">
            <mxPoint x="516" y="590" as="sourcePoint" />
            <mxPoint x="516" y="220" as="targetPoint" />
          </mxGeometry>
        </mxCell>
        <mxCell id="SY2ZpiSkwmGouHmG82qD-19" value="" style="endArrow=none;dashed=1;html=1;dashPattern=1 3;strokeWidth=2;rounded=0;" edge="1" parent="WIyWlLk6GJQsqaUBKTNV-1">
          <mxGeometry width="50" height="50" relative="1" as="geometry">
            <mxPoint x="514" y="220" as="sourcePoint" />
            <mxPoint x="314" y="220" as="targetPoint" />
          </mxGeometry>
        </mxCell>
        <mxCell id="SY2ZpiSkwmGouHmG82qD-20" value="" style="endArrow=none;dashed=1;html=1;dashPattern=1 3;strokeWidth=2;rounded=0;" edge="1" parent="WIyWlLk6GJQsqaUBKTNV-1">
          <mxGeometry width="50" height="50" relative="1" as="geometry">
            <mxPoint x="510" y="590" as="sourcePoint" />
            <mxPoint x="310" y="590" as="targetPoint" />
          </mxGeometry>
        </mxCell>
        <mxCell id="SY2ZpiSkwmGouHmG82qD-21" value="&lt;font style=&quot;font-size: 18px;&quot;&gt;+&lt;/font&gt;" style="ellipse;whiteSpace=wrap;html=1;aspect=fixed;" vertex="1" parent="WIyWlLk6GJQsqaUBKTNV-1">
          <mxGeometry x="386" y="230" width="30" height="30" as="geometry" />
        </mxCell>
        <mxCell id="SY2ZpiSkwmGouHmG82qD-22" value="" style="endArrow=classic;html=1;rounded=0;entryX=0.5;entryY=1;entryDx=0;entryDy=0;exitX=0.5;exitY=0;exitDx=0;exitDy=0;" edge="1" parent="WIyWlLk6GJQsqaUBKTNV-1" source="SY2ZpiSkwmGouHmG82qD-14" target="SY2ZpiSkwmGouHmG82qD-21">
          <mxGeometry width="50" height="50" relative="1" as="geometry">
            <mxPoint x="610" y="380" as="sourcePoint" />
            <mxPoint x="660" y="330" as="targetPoint" />
          </mxGeometry>
        </mxCell>
        <mxCell id="SY2ZpiSkwmGouHmG82qD-23" value="" style="endArrow=classic;html=1;rounded=0;exitX=0.5;exitY=0;exitDx=0;exitDy=0;entryX=1;entryY=0.5;entryDx=0;entryDy=0;" edge="1" parent="WIyWlLk6GJQsqaUBKTNV-1" source="SY2ZpiSkwmGouHmG82qD-6" target="SY2ZpiSkwmGouHmG82qD-21">
          <mxGeometry width="50" height="50" relative="1" as="geometry">
            <mxPoint x="610" y="380" as="sourcePoint" />
            <mxPoint x="660" y="330" as="targetPoint" />
            <Array as="points">
              <mxPoint x="480" y="400" />
              <mxPoint x="480" y="245" />
            </Array>
          </mxGeometry>
        </mxCell>
        <mxCell id="SY2ZpiSkwmGouHmG82qD-24" value="AVG Pool" style="rounded=0;whiteSpace=wrap;html=1;" vertex="1" parent="WIyWlLk6GJQsqaUBKTNV-1">
          <mxGeometry x="311" y="160" width="180" height="30" as="geometry" />
        </mxCell>
        <mxCell id="SY2ZpiSkwmGouHmG82qD-25" value="" style="endArrow=classic;html=1;rounded=0;entryX=0.5;entryY=1;entryDx=0;entryDy=0;exitX=0.5;exitY=0;exitDx=0;exitDy=0;" edge="1" parent="WIyWlLk6GJQsqaUBKTNV-1" source="SY2ZpiSkwmGouHmG82qD-21" target="SY2ZpiSkwmGouHmG82qD-24">
          <mxGeometry width="50" height="50" relative="1" as="geometry">
            <mxPoint x="610" y="380" as="sourcePoint" />
            <mxPoint x="660" y="330" as="targetPoint" />
          </mxGeometry>
        </mxCell>
      </root>
    </mxGraphModel>
  </diagram>
</mxfile>
